<?xml version="1.0" encoding="utf-8"?>
<!-- Generator: Adobe Illustrator 22.1.0, SVG Export Plug-In . SVG Version: 6.00 Build 0)  -->
<svg version="1.1" id="图层_1" xmlns="http://www.w3.org/2000/svg" xmlns:xlink="http://www.w3.org/1999/xlink" x="0px" y="0px"
	 viewBox="0 0 500 500" style="enable-background:new 0 0 500 500;" xml:space="preserve">
<style type="text/css">
	.st0{fill:#0A8BEA;}
	.st1{fill:#8DD4FF;}
	.st2{fill:#1890FF;}
	.st3{fill:#FFFFFF;}
	.st4{fill:#71C2FF;}
	.st5{fill:#64B9ED;}
	.st6{fill:#FFF8E1;}
	.st7{fill:#FFBA31;}
	.st8{fill:#0DB3A6;}
	.st9{fill:#ACDBDB;}
	.st10{fill:#008B71;}
	.st11{fill:#00A586;}
</style>
<g>
	<g>
		<path class="st0" d="M343.1-63c0,0-3.4-34.2,17.3-60.1c20.7-25.8-4.4-29.3-4.4-29.3s-14.3-11.9-1.2-19.2c13-7.3,25.2,5.1,25.2,5.1
			s8.1,4.1,8-7.5c-0.1-11.6-12.5-16.5-12.5-16.5s-12.8-5.7-8.1-18.8c4.7-13.1,13.8-2.3,13.8-2.3s8.8,12.9,15.3,6.6
			c6.5-6.3,7.2-10.6,3.1-17.3c-4.1-6.8-16.2-11.3-16-19c0.1-7.7,5-14.7,11.6-12c6.6,2.7,8.3,12.1,14.1,12
			c5.8-0.1,13.5-5.5,10.2-14.9c-3.4-9.4-14.3-12.7-9.3-22.5c5-9.8,12-3.2,12-3.2s14.3,15,17.4-1.2c3.1-16.2-9-22.4-10-24.5
			c-1-2-2.8-19.2,12.7-13.7c15.4,5.5,11.4,24.4,20.2,1c8.8-23.4,9.1-33.6,19.1-31.5c10,2.2,9.8,15.1-0.6,29.9
			C470.4-307,456-298,470.7-298.3c14.7-0.3,16.7-1.5,18.9,5.8c2.2,7.3-5.4,18.3-15.4,17c-10-1.3-12.9-4.4-16.7,3
			c-3.8,7.3,7.7,8.6,7.7,8.6s16.4,0.6,9.9,11.2c-6.5,10.6-17,3.7-24,11c-7,7.3,5.6,9.8,5.6,9.8s7.8-3,12.3,1.6
			c4.5,4.6,0.2,14-18,17.9c-18.2,3.9-21.6,8.3-16.5,11.7c5.2,3.4,15.9-2.8,21,0.6c5.1,3.4,3.6,15-12.4,19.2
			c-16,4.2-24.2,8.6-17.2,14.4c7,5.9,13.5,2.2,13.5,2.2s12.8,0.3-0.2,13.1c-12.9,12.8-27,6.4-27,6.4s-6.8,1.2-1.9,6.8
			c4.9,5.6,15.6,4.8,15.6,4.8s8.7,3.7-5.2,9.8c-13.9,6.1-15.4,0.6-29.8,5C376.6-114,347.4-90.2,343.1-63z"/>
		<g>
			<path class="st1" d="M451.6-286.8c0,0,14-9.4,26.4-2.8c0,0,5.8,9.5-11.4,6.7C466.5-282.9,460.5-287,451.6-286.8z"/>
			<path class="st1" d="M452.6-294.4c0,0,0.5-20.7-15.4-19.9C421.3-313.5,449.6-304.6,452.6-294.4z"/>
			<path class="st1" d="M436.1-251.3c0,0,8.5-11,27.6-6.7c19.1,4.3-6,6.8-6,6.8S445.3-255.8,436.1-251.3z"/>
			<path class="st1" d="M437.6-258.7c0,0-6.7-16.2-18-17.4c-11.3-1.2-0.8,9.4-0.8,9.4S426.2-261.2,437.6-258.7z"/>
			<path class="st1" d="M428.5-216.9c0,0,20.4-17,33.1-9C474.3-218,428.5-216.9,428.5-216.9z"/>
			<path class="st1" d="M422.4-207.2c0,0-7.5-28.3-26-34.5c-18.5-6.1,3.6,8.8,3.6,8.8S412.3-228.2,422.4-207.2z"/>
			<path class="st1" d="M416.4-185c0,0,15.1-13.7,28.3-10.8c13.2,2.8-1.1,7.9-1.1,7.9S422.5-189.5,416.4-185z"/>
			<path class="st1" d="M405.7-172.2c0,0-4.1-26.5-27.5-33.2c0,0-10.8-0.6,3.9,11.2C396.9-182.3,397.2-186.3,405.7-172.2z"/>
			<path class="st1" d="M399.7-155.6c0,0,11.3-7.9,20.2-4.1c8.9,3.8,13.4,1.5,13.4,1.5s8.1-1.3-2.2,6.9c-10.3,8.2-20.3-3.2-20.3-3.2
				S408.9-159.1,399.7-155.6z"/>
			<path class="st1" d="M384.4-143.7c0,0,3-17.2-19.2-20.9c-22.1-3.7-0.5,8.4-0.5,8.4S381.8-157.6,384.4-143.7z"/>
			<path class="st1" d="M368.3-123c0,0,15.4-18.1,32.9-12.1c0,0,5.2,2.4,8,4.1c2.7,1.6,6.3,6.2-4.6,5.1c0,0-6.1-1.9-10.7-3.5
				C389.2-131.1,380.4-131.2,368.3-123z"/>
			<path class="st1" d="M343.1-63c0,0-5.8-36.3,43.8-83c0,0,29.9-30.4,44.5-90.3c14.6-59.9,32.7-73.1,32.7-73.1s20.3-29.4,20.9-40.9
				c0,0,2.2,14-27.4,53.8c0,0-19.1,27.5-24.7,63.7c0,0-10.5,51.9-41.6,88.4C391.1-144.4,345.7-113.5,343.1-63z"/>
		</g>
	</g>
	<g>
		<path class="st2" d="M173.4-63.8c0,0-43.4,3.9-63.1-24.1c-19.7-28-32.8-2.5-32.8-2.5s-18.2,5.7-13.3-12.9
			c4.8-18.5,15.9-18.6,15.9-18.6s5.2-11.3-6.4-14.3c-11.6-3-20.2,9-20.2,9s-17.1,3.6-5.8-13c11.3-16.5,12.3-5.5,14.1-13.7
			c1.9-8.2-7.2-10.8-17.8-4.4c-10.6,6.4-17.1-6.2-9.7-11.9c7.4-5.8,18.7-3.5,9.9-12.6c-8.8-9.1-17.2,6-25.3-3.4
			c-8.2-9.4,4.4-15.1,9.3-16.4c4.9-1.4,5.6-8.2-2.3-13.7C18-221.7,9-236,14.9-240.9c5.8-4.9,13.6-7.1,22.5,11.2
			c8.9,18.2,15.2,8.1,15.2,8.1s8.3-16,12.8-4.1c4.5,11.9-1.4,16.2-4,23.9c-2.5,7.7,7.4,2.4,7.4,2.4s3.9-13.2,9.9-15.9
			c5.9-2.7,12.8,9,8.1,23.4c-4.7,14.4,8.1,11,8.1,11s11.3-14,14.7,0.9c3.4,14.8-7.7,16.5-7.7,16.5s-1.7,14.7,9.6,12.1
			c11.3-2.6,15.7-10.3,21.7-2.3c6,8,0,14.7-7.2,18.8C118.8-131,110.9-77.6,173.4-63.8z"/>
		<g>
			<path class="st1" d="M172.9-65.2c0,0-51.6,4.2-75.1-55.6c0,0-27.7-55.5-44.5-71.7c0,0-31.7-33.5-35.7-49.6
				c0,0,8.5,20.9,39.6,49.5c0,0,31.8,32.8,47.9,74.3C105.1-118.3,112.6-70.9,172.9-65.2z"/>
			<path class="st1" d="M84.6-150.4c0,0-19.6-3-28.8,11.6c-9.2,14.6,6.8-1.7,6.8-1.7S66.3-148.8,84.6-150.4z"/>
			<path class="st1" d="M102.4-117.9c0,0-4.6-19.5,12.3-28.5c16.9-9.1,13.1,0.4,13.1,0.4s-3,2.4-9.3,3.9
				C112.3-140.6,102.6-133.9,102.4-117.9z"/>
			<path class="st1" d="M87.7-148.1c0,0.4-6.2-20,10.2-27.6c0,0,7.7-2.1,2.2,5C94.7-163.6,87.9-171.4,87.7-148.1z"/>
			<path class="st1" d="M100.5-117.1c0,0-18-7.5-26.6,10.7c0,0-3.7,12.8,5.8,3.9C89.1-111.4,78.1-116.7,100.5-117.1z"/>
			<path class="st1" d="M72.5-172.4c0,0-3.2-20.7,5.5-32.5c0,0,6.5-6.9,1.9,7.2C75.3-183.7,72.7-195,72.5-172.4z"/>
			<path class="st1" d="M69.4-174.7c0,0-16.6-3.3-27.8,8.6c0,0-1.9,6.6,6.5-0.8C56.4-174.4,69.4-174.7,69.4-174.7z"/>
			<path class="st1" d="M52.2-195c0,0-1.8-12.1,5.5-23c0,0,4.4-4.4,3,2.1C59.2-209.4,52.4-209.7,52.2-195z"/>
			<path class="st1" d="M49-198.9c0,0-13.6-3.9-20.6,5.6c-6.9,9.5,6.9-0.5,6.9-0.5S37-198.6,49-198.9z"/>
		</g>
	</g>
	<g>
		<path class="st2" d="M379.9-59.2H96.3c-7.6,0-13.7-7-13.7-15.6v-255.4c0-8.7,6.1-15.6,13.7-15.6h283.7c7.6,0,13.7,7,13.7,15.6
			v255.4C393.6-66.2,387.5-59.2,379.9-59.2L379.9-59.2z M379.9-59.2"/>
		<path class="st2" d="M238.1-278.6H82.6v-79.7c0-8.7,6.1-15.6,13.7-15.6h106.4c6.1,0,11.4,4.5,13.1,11.1L238.1-278.6z M238.1-278.6
			"/>
		<path class="st3" d="M358.4-78.6H117.8c-7.6,0-13.7-7-13.7-15.6v-212.1c0-8.7,6.1-15.6,13.7-15.6h240.6c7.6,0,13.7,7,13.7,15.6
			v212.1C372.1-85.7,365.9-78.6,358.4-78.6L358.4-78.6z M358.4-78.6"/>
		<path class="st4" d="M379.9-59.2H96.3c-7.6,0-13.7-7-13.7-15.6V-277c0-8.6,6.1-15.6,13.7-15.6h283.7c7.6,0,13.7,7,13.7,15.6v202.2
			C393.6-66.2,387.5-59.2,379.9-59.2L379.9-59.2z M379.9-59.2"/>
		<path class="st5" d="M356-292.6L272.8-127l-72.6-110.2l-88.4,4.5l33.7,51.4l-33.7,1.7l78.9,120.3h189.2c7.6,0,13.7-7,13.7-15.6
			v-161L356-292.6z M356-292.6"/>
		<path class="st6" d="M193.4-228h-75.3c-3.8,0-6.8-3.5-6.8-7.8s3.1-7.8,6.8-7.8h75.3c3.8,0,6.8,3.5,6.8,7.8S197.2-228,193.4-228
			L193.4-228z M193.4-174.9h-75.3c-3.8,0-6.8-3.5-6.8-7.8c0-4.3,3.1-7.8,6.8-7.8h75.3c3.8,0,6.8,3.5,6.8,7.8
			C200.2-178.4,197.2-174.9,193.4-174.9L193.4-174.9z M193.4-174.9"/>
		<path class="st7" d="M350.7-117.5l-37-27.9c-1.1-0.9-2.6-0.9-3.8,0l-37,27.9c-2.3,1.7-5.3-0.2-5.3-3.3v-172.4
			c0-4.3,2.9-7.8,6.5-7.8h75.3c3.6,0,6.5,3.5,6.5,7.8v172.4C356-117.7,352.9-115.8,350.7-117.5L350.7-117.5z M350.7-117.5"/>
	</g>
</g>
<path class="st3" d="M378.2,410.5H96.5c-8.6,0-15.7-7.1-15.7-15.7V110.2c0-8.6,7.1-15.7,15.7-15.7h281.7c8.6,0,15.7,7.1,15.7,15.7
	v284.6C393.9,403.4,386.8,410.5,378.2,410.5z"/>
<path class="st8" d="M393.9,160.7H80.8V109c0-8,6.5-14.5,14.5-14.5h284.8c7.6,0,13.7,6.2,13.7,13.7V160.7z"/>
<g>
	<g>
		<path class="st9" d="M165.8,253.9h-12c-2.2-0.1-4.3,0.8-5.5,2.4c-1.1,1.6-1.1,3.6,0,5.2c1.1,1.6,3.2,2.5,5.5,2.4h12
			c3.3,0,6-2.2,6-5C171.8,256.1,169.1,253.9,165.8,253.9L165.8,253.9z"/>
		<path class="st9" d="M321.2,253.9h-12c-2.2-0.1-4.3,0.8-5.5,2.4c-1.1,1.6-1.1,3.6,0,5.2c1.1,1.6,3.2,2.5,5.5,2.4h12
			c3.3,0,6-2.2,6-5C327.2,256.1,324.5,253.9,321.2,253.9L321.2,253.9z"/>
		<path class="st9" d="M232.5,184.2v12c0,2.1,1,4.1,2.5,5.2c1.5,1.1,3.5,1.1,5,0c1.5-1.1,2.5-3,2.5-5.2v-12c0-2.1-1-4.1-2.5-5.2
			c-1.5-1.1-3.5-1.1-5,0C233.5,180,232.5,182,232.5,184.2L232.5,184.2z"/>
		<path class="st9" d="M295.1,206.5l-8.6,8.3c-1.5,1.5-2.3,3.6-2,5.4c0.3,1.9,1.6,3.2,3.5,3.6c1.8,0.4,3.9-0.3,5.5-1.8l8.6-8.3
			c1.5-1.5,2.3-3.6,2-5.4c-0.3-1.9-1.6-3.2-3.5-3.6C298.7,204.4,296.6,205.1,295.1,206.5L295.1,206.5z"/>
		<path class="st9" d="M172.9,213.8l8.7,8.2c1.6,1.5,3.7,2.1,5.5,1.7c1.8-0.4,3.1-1.8,3.4-3.7c0.3-1.9-0.5-3.9-2.1-5.4l-8.7-8.2
			c-1.6-1.5-3.7-2.1-5.5-1.7c-1.8,0.4-3.1,1.8-3.4,3.7C170.6,210.3,171.4,212.4,172.9,213.8L172.9,213.8z"/>
	</g>
</g>
<g>
	<path class="st8" d="M183.6,267.8c0,29.7,24.1,53.8,53.8,53.8c29.7,0,53.8-24.1,53.8-53.8c0-29.7-24.1-53.8-53.8-53.8
		C207.6,214,183.6,238.1,183.6,267.8L183.6,267.8z"/>
	<path class="st8" d="M225.4,351.5c0,1.3,0.6,2.6,1.8,3.5c1.1,0.9,2.6,1.5,4.2,1.5h12c2.2,0.1,4.3-0.8,5.5-2.4
		c1.1-1.6,1.1-3.6,0-5.2c-1.1-1.6-3.2-2.5-5.5-2.4h-12c-1.6,0-3.1,0.5-4.2,1.5C226,349,225.4,350.2,225.4,351.5L225.4,351.5z"/>
	<path class="st8" d="M213.5,333.6c0,1.3,0.6,2.6,1.7,3.5c1.1,0.9,2.6,1.5,4.2,1.5h35.9c3.3,0,6-2.2,6-5c0-2.8-2.7-5-6-5h-35.9
		c-1.6,0-3.1,0.5-4.2,1.5C214.1,331,213.5,332.3,213.5,333.6L213.5,333.6z"/>
</g>
<path d="M213.7,333.6"/>
<g>
	<g>
		<path class="st9" d="M215.5,245.1c-0.6,1.1-0.6,2.3,0,3.5c0.6,1.2,1.6,2.2,3,2.8l30.6,13.9c2.8,1.3,6,0.5,7.2-1.7
			c1.1-2.2-0.2-5-3-6.3l-30.6-13.9c-1.4-0.6-2.9-0.8-4.2-0.5C217.1,243.3,216,244.1,215.5,245.1L215.5,245.1z"/>
		<path class="st9" d="M218.6,283.7c0.7,1,1.9,1.6,3.3,1.7c1.4,0.1,2.9-0.3,4.1-1.1l28.2-18.2c2.6-1.7,3.5-4.7,2-6.7
			c-1.5-2-4.8-2.3-7.4-0.6L220.6,277c-1.2,0.8-2.2,2-2.5,3.2S217.9,282.7,218.6,283.7L218.6,283.7z"/>
		<path class="st9" d="M218.2,279.6c-0.6,1.1-0.6,2.3,0,3.5c0.6,1.2,1.7,2.2,3,2.8l30.8,14c2.8,1.3,6.1,0.5,7.2-1.7
			c1.2-2.2-0.2-5-3-6.3l-30.8-14c-1.4-0.6-2.9-0.8-4.2-0.5S218.8,278.5,218.2,279.6L218.2,279.6z"/>
	</g>
</g>
<g>
	<path class="st10" d="M44.7,221.2c0,0,14.7,23.9,19.6,54.9s14.5,73.1,41.6,104.3s30.9,29.4,30.9,29.4s4-0.2,2.1-4.7
		c-1.9-4.5-17.1-11.4-29.1-26.4c-12-14.9-31.5-40.5-42.7-101C67.1,277.8,59,230.7,44.7,221.2z"/>
	<path class="st10" d="M54.3,240.4l-18-26.6c0,0-7.5-7.7-2.9-14.8c4.6-7.1,16.2,16.4,16.2,16.4S60.1,236.8,54.3,240.4z"/>
	<path class="st10" d="M61.5,257.6c0,0-1.5-14.4,6.5-20.2c8-5.8,14.9,0.3,14.9,0.3s5.6,6.6-4.1,11S64.8,247,61.5,257.6z"/>
	<path class="st10" d="M57.6,248.3c0,0-5.3-10.5-13.4-9.3c-8,1.2-11.1,1.2-12.2,9.1c-1.1,8,6.8,11.2,10.6,6.5
		C46.4,249.9,51,244.3,57.6,248.3z"/>
	<path class="st10" d="M66.7,282.5c0,0-6.3-16-15.9-14.6c-9.6,1.4-10,7.2-8.2,11c1.8,3.8,5,6.3,9.6,2.8
		C57,278,58.9,275.2,66.7,282.5z"/>
	<path class="st10" d="M72.6,302.3c0,0-3.5-12.4,5.5-20s14.5-1,14.5-1s6.2,5.1-0.4,9.7C85.6,295.6,79.5,284.2,72.6,302.3z"/>
	<path class="st10" d="M80,330.1c0,0-0.1-13.9,8-18.3c8-4.4,12.3-5.7,18.9-3c6.6,2.7,3.4,12.8-7.3,13
		C88.9,321.9,82.2,321.5,80,330.1z"/>
	<path class="st10" d="M74,319c0,0-6-15.7-21-7.1c-15,8.6-8.8,16.2-8.8,16.2s7.2,11.4,13.9-2.4C64.8,311.9,67.1,315.5,74,319z"/>
	<path class="st10" d="M83.1,340.5c0,0-12.8-7.2-21.6,6.8c-8.8,14,5.8,13.8,5.8,13.8s6.7-0.4,6.6-8.4
		C73.9,344.7,77.1,341.5,83.1,340.5z"/>
	<path class="st10" d="M100,367.2c0,0-8.1-15.9,3.3-25.2c11.3-9.3,16.5-2.1,16.5-2.1s6.6,5.1-3.1,12.5
		C107,359.8,100.8,349.3,100,367.2z"/>
	<path class="st10" d="M108.9,382.2c0,0-15-10.4-27.8,3.9c-12.8,14.3,3.4,15.7,3.4,15.7s8.9,2.1,12.1-6.5
		C99.9,386.7,96.1,382.7,108.9,382.2z"/>
	<path class="st10" d="M123.7,392.4c0,0-10-9.5-2.8-20.4c7.2-10.9,13.6-6.1,14.5-4.1s4.1,5.7-4.7,12.2
		C121.8,386.7,123.7,392.4,123.7,392.4z"/>
	<path class="st11" d="M52.7,235.8l-7.8-11.5c0,0-3.2-3.3-1.3-6.4c2-3.1,7,7.1,7,7.1S55.3,234.3,52.7,235.8z"/>
	<path class="st11" d="M63.4,251.7c0,0-0.7-6.3,2.8-8.8c3.5-2.5,6.5,0.1,6.5,0.1s2.4,2.9-1.8,4.8C66.7,249.7,64.9,247.1,63.4,251.7z
		"/>
	<path class="st11" d="M53.2,245.7c0,0-2.3-4.6-5.8-4c-3.5,0.5-4.8,0.5-5.3,4c-0.5,3.5,3,4.9,4.6,2.8
		C48.4,246.4,50.3,244,53.2,245.7z"/>
	<path class="st11" d="M62.6,277.3c0,0-2.7-7-6.9-6.3s-4.3,3.1-3.5,4.8c0.8,1.6,2.2,2.7,4.2,1.2C58.3,275.4,59.2,274.2,62.6,277.3z"
		/>
	<path class="st11" d="M74.6,295.2c0,0-1.5-5.4,2.4-8.7c3.9-3.3,6.3-0.4,6.3-0.4s2.7,2.2-0.2,4.2S77.6,287.4,74.6,295.2z"/>
	<path class="st11" d="M81.9,322.9c0,0,0-6,3.5-8c3.5-1.9,5.3-2.5,8.2-1.3c2.9,1.2,1.5,5.6-3.2,5.6
		C85.7,319.4,82.8,319.2,81.9,322.9z"/>
	<path class="st11" d="M68.2,314.4c0,0-2.6-6.8-9.1-3.1c-6.5,3.7-3.8,7-3.8,7s3.1,4.9,6-1.1C64.2,311.3,65.2,312.8,68.2,314.4z"/>
	<path class="st11" d="M76.6,341.1c0,0-5.5-3.1-9.4,2.9c-3.8,6.1,2.5,6,2.5,6s2.9-0.2,2.9-3.6C72.6,342.9,74,341.5,76.6,341.1z"/>
	<path class="st11" d="M99,360.5c0,0-3.5-6.9,1.4-10.9c4.9-4,7.1-0.9,7.1-0.9s2.9,2.2-1.3,5.4C102,357.3,99.4,352.7,99,360.5z"/>
	<path class="st11" d="M101.9,381.1c0,0-6.5-4.5-12,1.7c-5.5,6.2,1.5,6.8,1.5,6.8s3.9,0.9,5.3-2.8C98,383.1,96.4,381.3,101.9,381.1z
		"/>
	<path class="st11" d="M122.6,388.6c0,0-4.3-4.1-1.2-8.8c3.1-4.7,5.9-2.7,6.3-1.8c0.4,0.9,1.8,2.5-2.1,5.3
		C121.8,386.2,122.6,388.6,122.6,388.6z"/>
</g>
<g>
	<path class="st10" d="M374.4,319.6c0,0,8.7,48.3-37.1,82.7c0,0-7.9,7.1-1.3,7.3C336,409.6,387.3,387.1,374.4,319.6z"/>
	<path class="st10" d="M373.9,343.1c0,0-5.2-18.7-4.4-28.1c0.8-9.4-1.3-16.3,7-17.7c8.3-1.4,8.7,18.6,8.7,18.6
		S382.6,336.4,373.9,343.1z"/>
	<path class="st10" d="M367.5,369.1c0,0,6.3-20.7-5.9-27.8c-12.1-7.1-18.4-4.6-18,0c0.4,4.6,1.2,10.4,12.7,9.2
		C367.9,349.3,367.5,369.1,367.5,369.1z"/>
	<path class="st10" d="M374.6,359c0,0,2-17.5,18-22.1c16-4.6,9.4,11.1,9.4,11.1s-0.3,5.5-13,5.1C376.3,352.5,374.6,359,374.6,359z"
		/>
	<path class="st10" d="M360.1,387.6c0,0,12.1-12.2,25-14.8c12.9-2.7,21.5,7.7,18.2,14.8c-3.3,7.1-14.4,1.6-14.4,1.6
		S384.9,377,360.1,387.6z"/>
	<path class="st11" d="M375,338.8c0,0-2.3-8.1-1.9-12.2c0.3-4.1-0.6-7.1,3-7.7c3.6-0.6,3.8,8.1,3.8,8.1S378.8,335.9,375,338.8z"/>
	<path class="st11" d="M366.8,357.1c0,0,2.7-9-2.5-12.1c-5.3-3.1-8-2-7.8,0c0.2,2,0.5,4.5,5.5,4
		C366.9,348.5,366.8,357.1,366.8,357.1z"/>
	<path class="st11" d="M378.9,353.1c0,0,0.8-7.6,7.8-9.6c6.9-2,4.1,4.8,4.1,4.8s-0.1,2.4-5.6,2.2
		C379.6,350.3,378.9,353.1,378.9,353.1z"/>
	<path class="st11" d="M370.3,381.1c0,0,5.3-5.3,10.8-6.4c5.6-1.2,9.3,3.4,7.9,6.4s-6.2,0.7-6.2,0.7S381.1,376.5,370.3,381.1z"/>
</g>
</svg>
