<?xml version="1.0" encoding="utf-8"?>
<!-- Generator: Adobe Illustrator 22.1.0, SVG Export Plug-In . SVG Version: 6.00 Build 0)  -->
<svg version="1.1" id="图层_1" xmlns="http://www.w3.org/2000/svg" xmlns:xlink="http://www.w3.org/1999/xlink" x="0px" y="0px"
	 viewBox="0 0 500 500" style="enable-background:new 0 0 500 500;" xml:space="preserve">
<style type="text/css">
	.st0{fill:#0A8BEA;}
	.st1{fill:#8DD4FF;}
	.st2{fill:#1890FF;}
	.st3{fill:#FFFFFF;}
	.st4{fill:#71C2FF;}
	.st5{fill:#64B9ED;}
	.st6{fill:#FFF8E1;}
	.st7{fill:#FFBA31;}
</style>
<g>
	<g>
		<path class="st0" d="M343.1,406c0,0-3.4-34.2,17.3-60.1c20.7-25.8-4.4-29.3-4.4-29.3s-14.3-11.9-1.2-19.2
			c13-7.3,25.2,5.1,25.2,5.1s8.1,4.1,8-7.5c-0.1-11.6-12.5-16.5-12.5-16.5s-12.8-5.7-8.1-18.8c4.7-13.1,13.8-2.3,13.8-2.3
			s8.8,12.9,15.3,6.6c6.5-6.3,7.2-10.6,3.1-17.3c-4.1-6.8-16.2-11.3-16-19c0.1-7.7,5-14.7,11.6-12c6.6,2.7,8.3,12.1,14.1,12
			c5.8-0.1,13.5-5.5,10.2-14.9c-3.4-9.4-14.3-12.7-9.3-22.5c5-9.8,12-3.2,12-3.2s14.3,15,17.4-1.2c3.1-16.2-9-22.4-10-24.5
			c-1-2-2.8-19.2,12.7-13.7c15.4,5.5,11.4,24.4,20.2,1c8.8-23.4,9.1-33.6,19.1-31.5c10,2.2,9.8,15.1-0.6,29.9
			C470.4,162,456,171,470.7,170.7c14.7-0.3,16.7-1.5,18.9,5.8c2.2,7.3-5.4,18.3-15.4,17c-10-1.3-12.9-4.4-16.7,3
			c-3.8,7.3,7.7,8.6,7.7,8.6s16.4,0.6,9.9,11.2c-6.5,10.6-17,3.7-24,11c-7,7.3,5.6,9.8,5.6,9.8s7.8-3,12.3,1.6
			c4.5,4.6,0.2,14-18,17.9c-18.2,3.9-21.6,8.3-16.5,11.7c5.2,3.4,15.9-2.8,21,0.6c5.1,3.4,3.6,15-12.4,19.2
			c-16,4.2-24.2,8.6-17.2,14.4c7,5.9,13.5,2.2,13.5,2.2s12.8,0.3-0.2,13.1c-12.9,12.8-27,6.4-27,6.4s-6.8,1.2-1.9,6.8
			c4.9,5.6,15.6,4.8,15.6,4.8s8.7,3.7-5.2,9.8c-13.9,6.1-15.4,0.6-29.8,5C376.6,355,347.4,378.8,343.1,406z"/>
		<g>
			<path class="st1" d="M451.6,182.2c0,0,14-9.4,26.4-2.8c0,0,5.8,9.5-11.4,6.7C466.5,186.1,460.5,182,451.6,182.2z"/>
			<path class="st1" d="M452.6,174.6c0,0,0.5-20.7-15.4-19.9C421.3,155.5,449.6,164.4,452.6,174.6z"/>
			<path class="st1" d="M436.1,217.7c0,0,8.5-11,27.6-6.7c19.1,4.3-6,6.8-6,6.8S445.3,213.2,436.1,217.7z"/>
			<path class="st1" d="M437.6,210.3c0,0-6.7-16.2-18-17.4c-11.3-1.2-0.8,9.4-0.8,9.4S426.2,207.8,437.6,210.3z"/>
			<path class="st1" d="M428.5,252.1c0,0,20.4-17,33.1-9C474.3,251,428.5,252.1,428.5,252.1z"/>
			<path class="st1" d="M422.4,261.8c0,0-7.5-28.3-26-34.5c-18.5-6.1,3.6,8.8,3.6,8.8S412.3,240.8,422.4,261.8z"/>
			<path class="st1" d="M416.4,284c0,0,15.1-13.7,28.3-10.8c13.2,2.8-1.1,7.9-1.1,7.9S422.5,279.5,416.4,284z"/>
			<path class="st1" d="M405.7,296.8c0,0-4.1-26.5-27.5-33.2c0,0-10.8-0.6,3.9,11.2C396.9,286.7,397.2,282.7,405.7,296.8z"/>
			<path class="st1" d="M399.7,313.4c0,0,11.3-7.9,20.2-4.1c8.9,3.8,13.4,1.5,13.4,1.5s8.1-1.3-2.2,6.9c-10.3,8.2-20.3-3.2-20.3-3.2
				S408.9,309.9,399.7,313.4z"/>
			<path class="st1" d="M384.4,325.3c0,0,3-17.2-19.2-20.9c-22.1-3.7-0.5,8.4-0.5,8.4S381.8,311.4,384.4,325.3z"/>
			<path class="st1" d="M368.3,346c0,0,15.4-18.1,32.9-12.1c0,0,5.2,2.4,8,4.1c2.7,1.6,6.3,6.2-4.6,5.1c0,0-6.1-1.9-10.7-3.5
				C389.2,337.9,380.4,337.8,368.3,346z"/>
			<path class="st1" d="M343.1,406c0,0-5.8-36.3,43.8-83c0,0,29.9-30.4,44.5-90.3c14.6-59.9,32.7-73.1,32.7-73.1
				s20.3-29.4,20.9-40.9c0,0,2.2,14-27.4,53.8c0,0-19.1,27.5-24.7,63.7c0,0-10.5,51.9-41.6,88.4C391.1,324.6,345.7,355.5,343.1,406z
				"/>
		</g>
	</g>
	<g>
		<path class="st2" d="M173.4,405.2c0,0-43.4,3.9-63.1-24.1c-19.7-28-32.8-2.5-32.8-2.5s-18.2,5.7-13.3-12.9
			c4.8-18.5,15.9-18.6,15.9-18.6s5.2-11.3-6.4-14.3c-11.6-3-20.2,9-20.2,9s-17.1,3.6-5.8-13c11.3-16.5,12.3-5.5,14.1-13.7
			c1.9-8.2-7.2-10.8-17.8-4.4c-10.6,6.4-17.1-6.2-9.7-11.9c7.4-5.8,18.7-3.5,9.9-12.6c-8.8-9.1-17.2,6-25.3-3.4
			c-8.2-9.4,4.4-15.1,9.3-16.4c4.9-1.4,5.6-8.2-2.3-13.7C18,247.3,9,233,14.9,228.1c5.8-4.9,13.6-7.1,22.5,11.2
			c8.9,18.2,15.2,8.1,15.2,8.1s8.3-16,12.8-4.1c4.5,11.9-1.4,16.2-4,23.9c-2.5,7.7,7.4,2.4,7.4,2.4s3.9-13.2,9.9-15.9
			c5.9-2.7,12.8,9,8.1,23.4c-4.7,14.4,8.1,11,8.1,11s11.3-14,14.7,0.9c3.4,14.8-7.7,16.5-7.7,16.5s-1.7,14.7,9.6,12.1
			c11.3-2.6,15.7-10.3,21.7-2.3c6,8,0,14.7-7.2,18.8C118.8,338,110.9,391.4,173.4,405.2z"/>
		<g>
			<path class="st1" d="M172.9,403.8c0,0-51.6,4.2-75.1-55.6c0,0-27.7-55.5-44.5-71.7c0,0-31.7-33.5-35.7-49.6
				c0,0,8.5,20.9,39.6,49.5c0,0,31.8,32.8,47.9,74.3C105.1,350.7,112.6,398.1,172.9,403.8z"/>
			<path class="st1" d="M84.6,318.6c0,0-19.6-3-28.8,11.6c-9.2,14.6,6.8-1.7,6.8-1.7S66.3,320.2,84.6,318.6z"/>
			<path class="st1" d="M102.4,351.1c0,0-4.6-19.5,12.3-28.5c16.9-9.1,13.1,0.4,13.1,0.4s-3,2.4-9.3,3.9
				C112.3,328.4,102.6,335.1,102.4,351.1z"/>
			<path class="st1" d="M87.7,320.9c0,0.4-6.2-20,10.2-27.6c0,0,7.7-2.1,2.2,5C94.7,305.4,87.9,297.6,87.7,320.9z"/>
			<path class="st1" d="M100.5,351.9c0,0-18-7.5-26.6,10.7c0,0-3.7,12.8,5.8,3.9C89.1,357.6,78.1,352.3,100.5,351.9z"/>
			<path class="st1" d="M72.5,296.6c0,0-3.2-20.7,5.5-32.5c0,0,6.5-6.9,1.9,7.2C75.3,285.3,72.7,274,72.5,296.6z"/>
			<path class="st1" d="M69.4,294.3c0,0-16.6-3.3-27.8,8.6c0,0-1.9,6.6,6.5-0.8C56.4,294.6,69.4,294.3,69.4,294.3z"/>
			<path class="st1" d="M52.2,274c0,0-1.8-12.1,5.5-23c0,0,4.4-4.4,3,2.1C59.2,259.6,52.4,259.3,52.2,274z"/>
			<path class="st1" d="M49,270.1c0,0-13.6-3.9-20.6,5.6c-6.9,9.5,6.9-0.5,6.9-0.5S37,270.4,49,270.1z"/>
		</g>
	</g>
	<g>
		<path class="st2" d="M379.9,409.8H96.3c-7.6,0-13.7-7-13.7-15.6V138.8c0-8.7,6.1-15.6,13.7-15.6h283.7c7.6,0,13.7,7,13.7,15.6
			v255.4C393.6,402.8,387.5,409.8,379.9,409.8L379.9,409.8z M379.9,409.8"/>
		<path class="st2" d="M238.1,190.4H82.6v-79.7c0-8.7,6.1-15.6,13.7-15.6h106.4c6.1,0,11.4,4.5,13.1,11.1L238.1,190.4z M238.1,190.4
			"/>
		<path class="st3" d="M358.4,390.4H117.8c-7.6,0-13.7-7-13.7-15.6V162.6c0-8.7,6.1-15.6,13.7-15.6h240.6c7.6,0,13.7,7,13.7,15.6
			v212.1C372.1,383.3,365.9,390.4,358.4,390.4L358.4,390.4z M358.4,390.4"/>
		<path class="st4" d="M379.9,409.8H96.3c-7.6,0-13.7-7-13.7-15.6V192c0-8.6,6.1-15.6,13.7-15.6h283.7c7.6,0,13.7,7,13.7,15.6v202.2
			C393.6,402.8,387.5,409.8,379.9,409.8L379.9,409.8z M379.9,409.8"/>
		<path class="st5" d="M356,176.4L272.8,342l-72.6-110.2l-88.4,4.5l33.7,51.4l-33.7,1.7l78.9,120.3h189.2c7.6,0,13.7-7,13.7-15.6
			v-161L356,176.4z M356,176.4"/>
		<path class="st6" d="M193.4,241h-75.3c-3.8,0-6.8-3.5-6.8-7.8s3.1-7.8,6.8-7.8h75.3c3.8,0,6.8,3.5,6.8,7.8S197.2,241,193.4,241
			L193.4,241z M193.4,294.1h-75.3c-3.8,0-6.8-3.5-6.8-7.8c0-4.3,3.1-7.8,6.8-7.8h75.3c3.8,0,6.8,3.5,6.8,7.8
			C200.2,290.6,197.2,294.1,193.4,294.1L193.4,294.1z M193.4,294.1"/>
		<path class="st7" d="M350.7,351.5l-37-27.9c-1.1-0.9-2.6-0.9-3.8,0l-37,27.9c-2.3,1.7-5.3-0.2-5.3-3.3V175.8
			c0-4.3,2.9-7.8,6.5-7.8h75.3c3.6,0,6.5,3.5,6.5,7.8v172.4C356,351.3,352.9,353.2,350.7,351.5L350.7,351.5z M350.7,351.5"/>
	</g>
</g>
</svg>
